<svg width="358" height="347" viewBox="0 0 358 347" fill="none" xmlns="http://www.w3.org/2000/svg">
<path opacity="0.102307" fill-rule="evenodd" clip-rule="evenodd" d="M210.709 333.135C186.634 353.062 151.306 351.217 129.438 328.891L17.1697 214.276C-7.44801 189.143 -5.31687 148.335 21.7848 125.904L147.291 22.0249C171.366 2.09843 206.694 3.94337 228.562 26.2692L340.83 140.885C365.448 166.017 363.317 206.825 336.215 229.257L210.709 333.135Z" fill="#089C5E"/>
<path opacity="0.0535017" fill-rule="evenodd" clip-rule="evenodd" d="M120.804 163.707C105.957 175.995 84.1718 174.858 70.6862 161.09L20.3483 109.7C5.16742 94.2012 6.48162 69.0362 23.1943 55.2035L79.6058 8.51287C94.4521 -3.77512 116.238 -2.63741 129.723 11.1302L180.061 62.5206C195.242 78.019 193.928 103.184 177.215 117.017L120.804 163.707Z" fill="#00D408"/>
</svg>
