<svg width="1237" height="320" viewBox="0 0 1237 320" fill="none" xmlns="http://www.w3.org/2000/svg">
<path opacity="0.05" fill-rule="evenodd" clip-rule="evenodd" d="M1191.06 261.048C1178.76 272.08 1159.86 271.089 1148.78 258.832L1068.2 169.686C1057.05 157.361 1058.05 138.328 1070.42 127.235L1159.94 46.9522C1172.24 35.9203 1191.14 36.9111 1202.22 49.1683L1282.8 138.314C1293.95 150.639 1292.95 169.672 1280.58 180.765L1191.06 261.048Z" fill="#00BCD4"/>
<path opacity="0.0535017" fill-rule="evenodd" clip-rule="evenodd" d="M1242.87 178.956C1235.48 185.608 1224.1 185.011 1217.45 177.623L1151.04 103.872C1144.39 96.484 1144.99 85.1026 1152.38 78.4507L1226.13 12.0444C1233.52 5.39244 1244.9 5.98891 1251.55 13.3766L1317.96 87.1283C1324.61 94.516 1324.01 105.897 1316.62 112.549L1242.87 178.956Z" fill="#178944"/>
<path opacity="0.05" fill-rule="evenodd" clip-rule="evenodd" d="M104.064 340.048C91.764 351.08 72.8589 350.089 61.779 337.832L-18.8038 248.686C-29.9451 236.361 -28.9476 217.328 -16.579 206.235L72.9356 125.952C85.236 114.92 104.141 115.911 115.221 128.168L195.804 217.314C206.945 229.639 205.948 248.672 193.579 259.765L104.064 340.048Z" fill="#00BCD4"/>
<path opacity="0.0535017" fill-rule="evenodd" clip-rule="evenodd" d="M42.8717 236.956C35.484 243.608 24.1026 243.011 17.4507 235.623L-48.9556 161.872C-55.6076 154.484 -55.0111 143.103 -47.6234 136.451L26.1283 70.0444C33.516 63.3924 44.8974 63.9889 51.5493 71.3766L117.956 145.128C124.608 152.516 124.011 163.897 116.623 170.549L42.8717 236.956Z" fill="#178944"/>
</svg>
