<svg width="74" height="300" viewBox="0 0 74 300" fill="none" xmlns="http://www.w3.org/2000/svg">
<path d="M5.12729 9.43522C7.95216 9.43522 10.2422 7.32307 10.2422 4.71761C10.2422 2.11214 7.95216 0 5.12729 0C2.30242 0 0.0124512 2.11214 0.0124512 4.71761C0.0124512 7.32307 2.30242 9.43522 5.12729 9.43522Z" fill="#FFE031"/>
<path d="M37.6445 4.71761C37.6445 7.31639 35.36 9.43522 32.5297 9.43522C29.7121 9.43522 27.4148 7.3281 27.4148 4.71761C27.4148 2.11883 29.6994 0 32.5297 0C35.36 0 37.6445 2.10712 37.6445 4.71761Z" fill="#FFE031"/>
<path d="M5.12729 28.9612C7.95216 28.9612 10.2422 26.8491 10.2422 24.2436C10.2422 21.6382 7.95216 19.526 5.12729 19.526C2.30242 19.526 0.0124512 21.6382 0.0124512 24.2436C0.0124512 26.8491 2.30242 28.9612 5.12729 28.9612Z" fill="#FFE031"/>
<path d="M37.6445 24.2436C37.6445 26.8424 35.36 28.9612 32.5297 28.9612C29.7121 28.9612 27.4148 26.8541 27.4148 24.2436C27.4148 21.6331 29.6994 19.526 32.5297 19.526C35.36 19.5377 37.6445 21.6448 37.6445 24.2436Z" stroke="#FFE031" stroke-miterlimit="10"/>
<path d="M5.12729 48.4989C7.95216 48.4989 10.2422 46.3867 10.2422 43.7813C10.2422 41.1758 7.95216 39.0637 5.12729 39.0637C2.30242 39.0637 0.0124512 41.1758 0.0124512 43.7813C0.0124512 46.3867 2.30242 48.4989 5.12729 48.4989Z" fill="#1D262D"/>
<path d="M37.6445 43.7813C37.6445 46.3801 35.36 48.4989 32.5297 48.4989C29.7121 48.4989 27.4148 46.3918 27.4148 43.7813C27.4148 41.1708 29.6994 39.0637 32.5297 39.0637C35.36 39.0637 37.6445 41.1825 37.6445 43.7813Z" stroke="#FFE031" stroke-miterlimit="10"/>
<path d="M5.12729 68.0366C7.95216 68.0366 10.2422 65.9245 10.2422 63.319C10.2422 60.7135 7.95216 58.6014 5.12729 58.6014C2.30242 58.6014 0.0124512 60.7135 0.0124512 63.319C0.0124512 65.9245 2.30242 68.0366 5.12729 68.0366Z" fill="#1D262D"/>
<path d="M37.6445 63.319C37.6445 65.9178 35.36 68.0366 32.5297 68.0366C29.7121 68.0366 27.4148 65.9295 27.4148 63.319C27.4148 60.7202 29.6994 58.6014 32.5297 58.6014C35.36 58.6014 37.6445 60.7085 37.6445 63.319Z" stroke="#FFE031" stroke-miterlimit="10"/>
<path d="M10.2298 82.8567C10.2298 85.4555 7.94515 87.5743 5.11484 87.5743C2.29721 87.5743 0 85.4672 0 82.8567C0 80.2579 2.28452 78.1391 5.11484 78.1391C7.94515 78.1391 10.2298 80.2462 10.2298 82.8567Z" fill="#1D262D"/>
<path d="M37.6445 82.8567C37.6445 85.4555 35.36 87.5743 32.5297 87.5743C29.7121 87.5743 27.4148 85.4672 27.4148 82.8567C27.4148 80.2579 29.6994 78.1391 32.5297 78.1391C35.36 78.1391 37.6445 80.2462 37.6445 82.8567Z" stroke="#FFE031" stroke-miterlimit="10"/>
<path d="M10.2298 102.383C10.2298 104.981 7.94515 107.1 5.11484 107.1C2.29721 107.1 0 104.993 0 102.383C0 99.7839 2.28452 97.6651 5.11484 97.6651C7.94515 97.6651 10.2298 99.7839 10.2298 102.383Z" fill="#FFE031"/>
<path d="M37.6445 102.383C37.6445 104.981 35.36 107.1 32.5297 107.1C29.7121 107.1 27.4148 104.993 27.4148 102.383C27.4148 99.7839 29.6994 97.6651 32.5297 97.6651C35.36 97.6651 37.6445 99.7839 37.6445 102.383Z" stroke="#FFE031" stroke-miterlimit="10"/>
<path d="M10.2298 121.92C10.2298 124.519 7.94515 126.638 5.11484 126.638C2.29721 126.638 0 124.531 0 121.92C0 119.322 2.28452 117.203 5.11484 117.203C7.94515 117.203 10.2298 119.31 10.2298 121.92Z" fill="#FFE031"/>
<path d="M37.6445 121.92C37.6445 124.519 35.36 126.638 32.5297 126.638C29.7121 126.638 27.4148 124.531 27.4148 121.92C27.4148 119.322 29.6994 117.203 32.5297 117.203C35.36 117.203 37.6445 119.31 37.6445 121.92Z" fill="#FFE031"/>
<path d="M37.988 191.89C41.0055 191.89 43.4516 189.954 43.4516 187.566C43.4516 185.177 41.0055 183.241 37.988 183.241C34.9705 183.241 32.5244 185.177 32.5244 187.566C32.5244 189.954 34.9705 191.89 37.988 191.89Z" fill="#FFE031"/>
<path d="M72.7222 187.566C72.7222 189.948 70.2819 191.89 67.2586 191.89C64.2488 191.89 61.7949 189.959 61.7949 187.566C61.7949 185.184 64.2353 183.241 67.2586 183.241C70.2819 183.241 72.7222 185.173 72.7222 187.566Z" fill="#FFE031"/>
<path d="M37.988 209.789C41.0055 209.789 43.4516 207.853 43.4516 205.465C43.4516 203.076 41.0055 201.14 37.988 201.14C34.9705 201.14 32.5244 203.076 32.5244 205.465C32.5244 207.853 34.9705 209.789 37.988 209.789Z" fill="#FFE031"/>
<path d="M72.7222 205.465C72.7222 207.847 70.2819 209.789 67.2586 209.789C64.2488 209.789 61.7949 207.858 61.7949 205.465C61.7949 203.072 64.2353 201.14 67.2586 201.14C70.2819 201.151 72.7222 203.082 72.7222 205.465Z" stroke="#FFE031" stroke-miterlimit="10"/>
<path d="M37.988 227.699C41.0055 227.699 43.4516 225.763 43.4516 223.374C43.4516 220.986 41.0055 219.05 37.988 219.05C34.9705 219.05 32.5244 220.986 32.5244 223.374C32.5244 225.763 34.9705 227.699 37.988 227.699Z" fill="#1D262D"/>
<path d="M72.7222 223.374C72.7222 225.756 70.2819 227.699 67.2586 227.699C64.2488 227.699 61.7949 225.767 61.7949 223.374C61.7949 220.981 64.2353 219.05 67.2586 219.05C70.2819 219.05 72.7222 220.992 72.7222 223.374Z" stroke="#FFE031" stroke-miterlimit="10"/>
<path d="M37.988 245.608C41.0055 245.608 43.4516 243.672 43.4516 241.284C43.4516 238.895 41.0055 236.959 37.988 236.959C34.9705 236.959 32.5244 238.895 32.5244 241.284C32.5244 243.672 34.9705 245.608 37.988 245.608Z" fill="#1D262D"/>
<path d="M72.7222 241.284C72.7222 243.666 70.2819 245.608 67.2586 245.608C64.2488 245.608 61.7949 243.677 61.7949 241.284C61.7949 238.902 64.2353 236.959 67.2586 236.959C70.2819 236.959 72.7222 238.891 72.7222 241.284Z" stroke="#FFE031" stroke-miterlimit="10"/>
<path d="M43.4382 259.193C43.4382 261.576 40.9979 263.518 37.9746 263.518C34.9648 263.518 32.511 261.586 32.511 259.193C32.511 256.811 34.9513 254.869 37.9746 254.869C40.9979 254.869 43.4382 256.8 43.4382 259.193Z" fill="#1D262D"/>
<path d="M72.7222 259.193C72.7222 261.576 70.2819 263.518 67.2586 263.518C64.2488 263.518 61.7949 261.586 61.7949 259.193C61.7949 256.811 64.2353 254.869 67.2586 254.869C70.2819 254.869 72.7222 256.8 72.7222 259.193Z" stroke="#FFE031" stroke-miterlimit="10"/>
<path d="M43.4382 277.092C43.4382 279.474 40.9979 281.417 37.9746 281.417C34.9648 281.417 32.511 279.485 32.511 277.092C32.511 274.71 34.9513 272.768 37.9746 272.768C40.9979 272.768 43.4382 274.71 43.4382 277.092Z" fill="#FFE031"/>
<path d="M72.7222 277.092C72.7222 279.474 70.2819 281.417 67.2586 281.417C64.2488 281.417 61.7949 279.485 61.7949 277.092C61.7949 274.71 64.2353 272.768 67.2586 272.768C70.2819 272.768 72.7222 274.71 72.7222 277.092Z" stroke="#FFE031" stroke-miterlimit="10"/>
<path d="M43.4382 295.002C43.4382 297.384 40.9979 299.326 37.9746 299.326C34.9648 299.326 32.511 297.395 32.511 295.002C32.511 292.619 34.9513 290.677 37.9746 290.677C40.9979 290.677 43.4382 292.609 43.4382 295.002Z" fill="#FFE031"/>
<path d="M72.7222 295.002C72.7222 297.384 70.2819 299.326 67.2586 299.326C64.2488 299.326 61.7949 297.395 61.7949 295.002C61.7949 292.619 64.2353 290.677 67.2586 290.677C70.2819 290.677 72.7222 292.609 72.7222 295.002Z" fill="#FFE031"/>
</svg>
