<svg width="1232" height="738" viewBox="0 0 1232 738" fill="none" xmlns="http://www.w3.org/2000/svg">
<path d="M5.3521 470.161C24.1487 474.948 38.1712 493.8 38.1712 516.317C38.1712 540.666 21.7788 560.717 0.697876 563.355" stroke="#1D262D" stroke-width="3" stroke-miterlimit="10" stroke-linecap="round"/>
<path d="M7.34554 456.24C32.131 462.121 50.7222 486.787 50.7222 516.326C50.7222 548.072 29.2392 574.196 1.68176 577.41" stroke="#1D262D" stroke-width="3" stroke-miterlimit="10" stroke-linecap="round"/>
<path d="M3.68383 483.986C16.4231 487.804 25.8085 500.832 25.8085 516.326C25.8085 533.326 14.5066 547.372 -0.140503 549.511" stroke="#1D262D" stroke-width="3" stroke-miterlimit="10" stroke-linecap="round"/>
<path d="M1.96412 497.829C8.69734 500.583 13.5056 507.816 13.5056 516.326C13.5056 526.025 7.2429 534.084 -0.987549 535.706" stroke="#1D262D" stroke-width="3" stroke-miterlimit="10" stroke-linecap="round"/>
<path d="M361.354 714.512H365.915V693.569H361.354V714.512Z" fill="#1D262D"/>
<path d="M349.772 714.512H354.332V693.569H349.772V714.512Z" fill="#1D262D"/>
<path d="M338.189 714.512H342.749V693.569H338.189V714.512Z" fill="#1D262D"/>
<path d="M361.354 684.69H365.915V663.746H361.354V684.69Z" fill="#1D262D"/>
<path d="M349.772 684.69H354.332V663.746H349.772V684.69Z" fill="#1D262D"/>
<path d="M349.772 654.867H354.332V633.923H349.772V654.867Z" fill="#1D262D"/>
<path d="M338.189 654.867H342.749V633.923H338.189V654.867Z" fill="#1D262D"/>
<path d="M361.354 625.034H365.915V604.091H361.354V625.034Z" fill="#1D262D"/>
<path d="M338.189 625.034H342.749V604.091H338.189V625.034Z" fill="#1D262D"/>
<path d="M361.354 595.212H365.915V574.268H361.354V595.212Z" fill="#1D262D"/>
<path d="M349.772 595.212H354.332V574.268H349.772V595.212Z" fill="#1D262D"/>
<path d="M361.354 565.389H365.915V544.446H361.354V565.389Z" fill="#1D262D"/>
<path d="M349.772 565.389H354.332V544.446H349.772V565.389Z" fill="#1D262D"/>
<path d="M338.189 565.389H342.749V544.446H338.189V565.389Z" fill="#1D262D"/>
<path d="M359.643 229.067H364.203V208.124H359.643V229.067Z" fill="#1D262D"/>
<path d="M348.06 229.067H352.621V208.124H348.06V229.067Z" fill="#1D262D"/>
<path d="M336.478 229.067H341.038V208.124H336.478V229.067Z" fill="#1D262D"/>
<path d="M359.643 199.244H364.203V178.301H359.643V199.244Z" fill="#1D262D"/>
<path d="M348.06 199.244H352.621V178.301H348.06V199.244Z" fill="#1D262D"/>
<path d="M348.06 169.421H352.621V148.478H348.06V169.421Z" fill="#1D262D"/>
<path d="M336.478 169.421H341.038V148.478H336.478V169.421Z" fill="#1D262D"/>
<path d="M359.643 139.589H364.203V118.646H359.643V139.589Z" fill="#1D262D"/>
<path d="M336.478 139.589H341.038V118.646H336.478V139.589Z" fill="#1D262D"/>
<path d="M359.643 109.766H364.203V88.8229H359.643V109.766Z" fill="#1D262D"/>
<path d="M348.06 109.766H352.621V88.8229H348.06V109.766Z" fill="#1D262D"/>
<path d="M359.643 79.9432H364.203V59H359.643V79.9432Z" fill="#1D262D"/>
<path d="M348.06 79.9432H352.621V59H348.06V79.9432Z" fill="#1D262D"/>
<path d="M336.478 79.9432H341.038V59H336.478V79.9432Z" fill="#1D262D"/>
<path d="M1012.36 247.839C1015.19 247.839 1017.48 245.727 1017.48 243.121C1017.48 240.516 1015.19 238.404 1012.36 238.404C1009.54 238.404 1007.25 240.516 1007.25 243.121C1007.25 245.727 1009.54 247.839 1012.36 247.839Z" fill="#FFE031"/>
<path d="M1044.88 243.121C1044.88 245.72 1042.59 247.839 1039.76 247.839C1036.95 247.839 1034.65 245.732 1034.65 243.121C1034.65 240.523 1036.93 238.404 1039.76 238.404C1042.59 238.404 1044.88 240.511 1044.88 243.121Z" fill="#FFE031"/>
<path d="M1012.36 267.365C1015.19 267.365 1017.48 265.253 1017.48 262.647C1017.48 260.042 1015.19 257.93 1012.36 257.93C1009.54 257.93 1007.25 260.042 1007.25 262.647C1007.25 265.253 1009.54 267.365 1012.36 267.365Z" fill="#FFE031"/>
<path d="M1044.88 262.647C1044.88 265.246 1042.59 267.365 1039.76 267.365C1036.95 267.365 1034.65 265.258 1034.65 262.647C1034.65 260.037 1036.93 257.93 1039.76 257.93C1042.59 257.942 1044.88 260.049 1044.88 262.647Z" stroke="#FFE031" stroke-miterlimit="10"/>
<path d="M1012.36 286.903C1015.19 286.903 1017.48 284.791 1017.48 282.185C1017.48 279.58 1015.19 277.468 1012.36 277.468C1009.54 277.468 1007.25 279.58 1007.25 282.185C1007.25 284.791 1009.54 286.903 1012.36 286.903Z" fill="#1D262D"/>
<path d="M1044.88 282.185C1044.88 284.784 1042.59 286.903 1039.76 286.903C1036.95 286.903 1034.65 284.796 1034.65 282.185C1034.65 279.575 1036.93 277.468 1039.76 277.468C1042.59 277.468 1044.88 279.586 1044.88 282.185Z" stroke="#FFE031" stroke-miterlimit="10"/>
<path d="M1012.36 306.44C1015.19 306.44 1017.48 304.328 1017.48 301.723C1017.48 299.117 1015.19 297.005 1012.36 297.005C1009.54 297.005 1007.25 299.117 1007.25 301.723C1007.25 304.328 1009.54 306.44 1012.36 306.44Z" fill="#1D262D"/>
<path d="M1044.88 301.723C1044.88 304.322 1042.59 306.44 1039.76 306.44C1036.95 306.44 1034.65 304.333 1034.65 301.723C1034.65 299.124 1036.93 297.005 1039.76 297.005C1042.59 297.005 1044.88 299.112 1044.88 301.723Z" stroke="#FFE031" stroke-miterlimit="10"/>
<path d="M1017.46 321.26C1017.46 323.859 1015.18 325.978 1012.35 325.978C1009.53 325.978 1007.23 323.871 1007.23 321.26C1007.23 318.662 1009.52 316.543 1012.35 316.543C1015.18 316.543 1017.46 318.65 1017.46 321.26Z" fill="#1D262D"/>
<path d="M1044.88 321.26C1044.88 323.859 1042.59 325.978 1039.76 325.978C1036.95 325.978 1034.65 323.871 1034.65 321.26C1034.65 318.662 1036.93 316.543 1039.76 316.543C1042.59 316.543 1044.88 318.65 1044.88 321.26Z" stroke="#FFE031" stroke-miterlimit="10"/>
<path d="M1017.46 340.786C1017.46 343.385 1015.18 345.504 1012.35 345.504C1009.53 345.504 1007.23 343.397 1007.23 340.786C1007.23 338.188 1009.52 336.069 1012.35 336.069C1015.18 336.069 1017.46 338.188 1017.46 340.786Z" fill="#FFE031"/>
<path d="M1044.88 340.786C1044.88 343.385 1042.59 345.504 1039.76 345.504C1036.95 345.504 1034.65 343.397 1034.65 340.786C1034.65 338.188 1036.93 336.069 1039.76 336.069C1042.59 336.069 1044.88 338.188 1044.88 340.786Z" stroke="#FFE031" stroke-miterlimit="10"/>
<path d="M1017.46 360.324C1017.46 362.923 1015.18 365.042 1012.35 365.042C1009.53 365.042 1007.23 362.935 1007.23 360.324C1007.23 357.725 1009.52 355.607 1012.35 355.607C1015.18 355.607 1017.46 357.714 1017.46 360.324Z" fill="#FFE031"/>
<path d="M1044.88 360.324C1044.88 362.923 1042.59 365.042 1039.76 365.042C1036.95 365.042 1034.65 362.935 1034.65 360.324C1034.65 357.725 1036.93 355.607 1039.76 355.607C1042.59 355.607 1044.88 357.714 1044.88 360.324Z" fill="#FFE031"/>
<path d="M1045.22 430.294C1048.24 430.294 1050.69 428.358 1050.69 425.97C1050.69 423.581 1048.24 421.645 1045.22 421.645C1042.2 421.645 1039.76 423.581 1039.76 425.97C1039.76 428.358 1042.2 430.294 1045.22 430.294Z" fill="#FFE031"/>
<path d="M1079.96 425.97C1079.96 428.352 1077.52 430.294 1074.49 430.294C1071.48 430.294 1069.03 428.363 1069.03 425.97C1069.03 423.587 1071.47 421.645 1074.49 421.645C1077.52 421.645 1079.96 423.577 1079.96 425.97Z" fill="#FFE031"/>
<path d="M1045.22 448.193C1048.24 448.193 1050.69 446.257 1050.69 443.868C1050.69 441.48 1048.24 439.544 1045.22 439.544C1042.2 439.544 1039.76 441.48 1039.76 443.868C1039.76 446.257 1042.2 448.193 1045.22 448.193Z" fill="#FFE031"/>
<path d="M1079.96 443.868C1079.96 446.251 1077.52 448.193 1074.49 448.193C1071.48 448.193 1069.03 446.261 1069.03 443.868C1069.03 441.475 1071.47 439.544 1074.49 439.544C1077.52 439.555 1079.96 441.486 1079.96 443.868Z" stroke="#FFE031" stroke-miterlimit="10"/>
<path d="M1045.22 466.103C1048.24 466.103 1050.69 464.166 1050.69 461.778C1050.69 459.39 1048.24 457.454 1045.22 457.454C1042.2 457.454 1039.76 459.39 1039.76 461.778C1039.76 464.166 1042.2 466.103 1045.22 466.103Z" fill="#1D262D"/>
<path d="M1079.96 461.778C1079.96 464.16 1077.52 466.103 1074.49 466.103C1071.48 466.103 1069.03 464.171 1069.03 461.778C1069.03 459.385 1071.47 457.454 1074.49 457.454C1077.52 457.454 1079.96 459.396 1079.96 461.778Z" stroke="#FFE031" stroke-miterlimit="10"/>
<path d="M1045.22 484.012C1048.24 484.012 1050.69 482.076 1050.69 479.688C1050.69 477.299 1048.24 475.363 1045.22 475.363C1042.2 475.363 1039.76 477.299 1039.76 479.688C1039.76 482.076 1042.2 484.012 1045.22 484.012Z" fill="#1D262D"/>
<path d="M1079.96 479.688C1079.96 482.07 1077.52 484.012 1074.49 484.012C1071.48 484.012 1069.03 482.08 1069.03 479.688C1069.03 477.305 1071.47 475.363 1074.49 475.363C1077.52 475.363 1079.96 477.295 1079.96 479.688Z" stroke="#FFE031" stroke-miterlimit="10"/>
<path d="M1050.67 497.597C1050.67 499.979 1048.23 501.922 1045.21 501.922C1042.2 501.922 1039.74 499.99 1039.74 497.597C1039.74 495.215 1042.18 493.273 1045.21 493.273C1048.23 493.273 1050.67 495.204 1050.67 497.597Z" fill="#1D262D"/>
<path d="M1079.96 497.597C1079.96 499.979 1077.52 501.922 1074.49 501.922C1071.48 501.922 1069.03 499.99 1069.03 497.597C1069.03 495.215 1071.47 493.273 1074.49 493.273C1077.52 493.273 1079.96 495.204 1079.96 497.597Z" stroke="#FFE031" stroke-miterlimit="10"/>
<path d="M1050.67 515.496C1050.67 517.878 1048.23 519.82 1045.21 519.82C1042.2 519.82 1039.74 517.889 1039.74 515.496C1039.74 513.114 1042.18 511.171 1045.21 511.171C1048.23 511.171 1050.67 513.114 1050.67 515.496Z" fill="#FFE031"/>
<path d="M1079.96 515.496C1079.96 517.878 1077.52 519.82 1074.49 519.82C1071.48 519.82 1069.03 517.889 1069.03 515.496C1069.03 513.114 1071.47 511.171 1074.49 511.171C1077.52 511.171 1079.96 513.114 1079.96 515.496Z" stroke="#FFE031" stroke-miterlimit="10"/>
<path d="M1050.67 533.406C1050.67 535.788 1048.23 537.73 1045.21 537.73C1042.2 537.73 1039.74 535.798 1039.74 533.406C1039.74 531.023 1042.18 529.081 1045.21 529.081C1048.23 529.081 1050.67 531.013 1050.67 533.406Z" fill="#FFE031"/>
<path d="M1079.96 533.406C1079.96 535.788 1077.52 537.73 1074.49 537.73C1071.48 537.73 1069.03 535.798 1069.03 533.406C1069.03 531.023 1071.47 529.081 1074.49 529.081C1077.52 529.081 1079.96 531.013 1079.96 533.406Z" fill="#FFE031"/>
<path d="M942.522 736.331C942.794 688.387 983.054 649.738 1032.43 650.001C1081.8 650.265 1121.6 689.359 1121.33 737.303" stroke="#1D262D" stroke-width="2" stroke-miterlimit="10"/>
<path d="M1098.49 737.172C1098.69 701.473 1069.06 672.383 1032.31 672.185C995.546 671.988 965.588 700.764 965.385 736.446L1098.49 737.172Z" fill="#8BD2BD"/>
<path d="M159.378 416.301L187.252 434.347L215.126 416.301V380.21L187.252 362.164L159.378 380.21V416.301Z" fill="#FFE031"/>
<path d="M159.378 452.393L187.252 470.439L215.126 452.393V416.301L187.252 398.255L159.378 416.301V452.393Z" stroke="#1D262D" stroke-width="2" stroke-miterlimit="10"/>
<path d="M859.65 254.713V242.241M865.211 248.477H854.089H865.211Z" stroke="#8BD2BD" stroke-miterlimit="10"/>
<path d="M859.65 224.013V211.541M865.211 217.777H854.089H865.211Z" stroke="#8BD2BD" stroke-miterlimit="10"/>
<path d="M859.65 194.272V181.801M865.211 188.036H854.089H865.211Z" stroke="#8BD2BD" stroke-miterlimit="10"/>
<path d="M859.65 254.713V242.241M865.211 248.477H854.089H865.211Z" stroke="#1D262D" stroke-width="2" stroke-miterlimit="10"/>
<path d="M859.65 224.013V211.541M865.211 217.777H854.089H865.211Z" stroke="#1D262D" stroke-width="2" stroke-miterlimit="10"/>
<path d="M859.65 194.272V181.801M865.211 188.036H854.089H865.211Z" stroke="#1D262D" stroke-width="2" stroke-miterlimit="10"/>
<path d="M885.317 254.713V242.241M890.878 248.477H879.756H890.878Z" stroke="#8BD2BD" stroke-miterlimit="10"/>
<path d="M885.317 224.013V211.541M890.878 217.777H879.756H890.878Z" stroke="#8BD2BD" stroke-miterlimit="10"/>
<path d="M885.317 194.272V181.801M890.878 188.036H879.756H890.878Z" stroke="#8BD2BD" stroke-miterlimit="10"/>
<path d="M885.317 254.713V242.241M890.878 248.477H879.756H890.878Z" stroke="#1D262D" stroke-width="2" stroke-miterlimit="10"/>
<path d="M885.317 224.013V211.541M890.878 217.777H879.756H890.878Z" stroke="#1D262D" stroke-width="2" stroke-miterlimit="10"/>
<path d="M885.317 194.272V181.801M890.878 188.036H879.756H890.878Z" stroke="#1D262D" stroke-width="2" stroke-miterlimit="10"/>
<path d="M910.983 224.013V211.541M916.544 217.777H905.422H916.544Z" stroke="#8BD2BD" stroke-miterlimit="10"/>
<path d="M910.983 194.272V181.801M916.544 188.036H905.422H916.544Z" stroke="#8BD2BD" stroke-miterlimit="10"/>
<path d="M910.983 224.013V211.541M916.544 217.777H905.422H916.544Z" stroke="#1D262D" stroke-width="2" stroke-miterlimit="10"/>
<path d="M910.983 194.272V181.801M916.544 188.036H905.422H916.544Z" stroke="#1D262D" stroke-width="2" stroke-miterlimit="10"/>
<path d="M936.65 224.013V211.541M942.211 217.777H931.089H942.211Z" stroke="#8BD2BD" stroke-miterlimit="10"/>
<path d="M936.65 194.272V181.801M942.211 188.036H931.089H942.211Z" stroke="#8BD2BD" stroke-miterlimit="10"/>
<path d="M936.65 224.013V211.541M942.211 217.777H931.089H942.211Z" stroke="#1D262D" stroke-width="2" stroke-miterlimit="10"/>
<path d="M936.65 194.272V181.801M942.211 188.036H931.089H942.211Z" stroke="#1D262D" stroke-width="2" stroke-miterlimit="10"/>
<path d="M962.317 224.013V211.541M967.878 217.777H956.756H967.878Z" stroke="#8BD2BD" stroke-miterlimit="10"/>
<path d="M962.317 194.272V181.801M967.878 188.036H956.756H967.878Z" stroke="#8BD2BD" stroke-miterlimit="10"/>
<path d="M962.317 224.013V211.541M967.878 217.777H956.756H967.878Z" stroke="#1D262D" stroke-width="2" stroke-miterlimit="10"/>
<path d="M962.317 194.272V181.801M967.878 188.036H956.756H967.878Z" stroke="#1D262D" stroke-width="2" stroke-miterlimit="10"/>
<path d="M1132.95 570.8C1132.95 573.697 1130.85 576.048 1128.27 576.048C1125.68 576.048 1123.59 573.697 1123.59 570.8C1123.59 567.902 1125.68 565.552 1128.27 565.552C1130.85 565.552 1132.95 567.902 1132.95 570.8Z" fill="#1D262D"/>
<path d="M1147.48 587.1C1147.48 589.997 1145.39 592.347 1142.8 592.347C1140.22 592.347 1138.12 589.997 1138.12 587.1C1138.12 584.202 1140.22 581.852 1142.8 581.852C1145.39 581.852 1147.48 584.202 1147.48 587.1Z" fill="#1D262D"/>
<path d="M1162.02 603.399C1162.02 606.297 1159.92 608.647 1157.34 608.647C1154.76 608.647 1152.66 606.297 1152.66 603.399C1152.66 600.502 1154.76 598.152 1157.34 598.152C1159.93 598.152 1162.02 600.502 1162.02 603.399Z" fill="#8BD2BD"/>
<path d="M1176.56 619.709C1176.56 622.606 1174.47 624.957 1171.88 624.957C1169.3 624.957 1167.21 622.606 1167.21 619.709C1167.21 616.812 1169.3 614.461 1171.88 614.461C1174.47 614.461 1176.56 616.802 1176.56 619.709Z" fill="#FFE031"/>
<path d="M1139.46 204.47C1139.46 207.49 1137.01 209.94 1133.99 209.94C1130.97 209.94 1128.52 207.49 1128.52 204.47C1128.52 201.45 1130.97 199 1133.99 199C1137.01 199 1139.46 201.45 1139.46 204.47Z" fill="#1D262D"/>
<path d="M1156.45 221.46C1156.45 224.48 1154 226.93 1150.98 226.93C1147.96 226.93 1145.51 224.48 1145.51 221.46C1145.51 218.44 1147.96 215.99 1150.98 215.99C1154 215.99 1156.45 218.44 1156.45 221.46Z" fill="#1D262D"/>
<path d="M1173.44 238.45C1173.44 241.47 1170.99 243.92 1167.97 243.92C1164.95 243.92 1162.5 241.47 1162.5 238.45C1162.5 235.43 1164.95 232.98 1167.97 232.98C1171 232.98 1173.44 235.43 1173.44 238.45Z" fill="#8BD2BD"/>
<path d="M1190.44 255.45C1190.44 258.47 1187.99 260.92 1184.97 260.92C1181.95 260.92 1179.5 258.47 1179.5 255.45C1179.5 252.43 1181.95 249.98 1184.97 249.98C1187.99 249.98 1190.44 252.42 1190.44 255.45Z" fill="#FFE031"/>
<path d="M815.7 554H805.322V566.13H815.7V554Z" stroke="#8BD2BD" stroke-width="2" stroke-miterlimit="10"/>
<path d="M834.899 554H824.521V566.13H834.899V554Z" stroke="#8BD2BD" stroke-width="2" stroke-miterlimit="10"/>
<path d="M854.089 554H843.711V566.13H854.089V554Z" stroke="#8BD2BD" stroke-width="2" stroke-miterlimit="10"/>
<path d="M873.288 554H862.91V566.13H873.288V554Z" stroke="#8BD2BD" stroke-width="2" stroke-miterlimit="10"/>
<path d="M892.478 554H882.1V566.13H892.478V554Z" stroke="#8BD2BD" stroke-width="2" stroke-miterlimit="10"/>
<path d="M911.668 554H901.29V566.13H911.668V554Z" stroke="#8BD2BD" stroke-width="2" stroke-miterlimit="10"/>
<path d="M930.866 554H920.489V566.13H930.866V554Z" stroke="#8BD2BD" stroke-width="2" stroke-miterlimit="10"/>
<path d="M815.7 573.79H805.322V585.92H815.7V573.79Z" stroke="#8BD2BD" stroke-width="2" stroke-miterlimit="10"/>
<path d="M834.899 573.79H824.521V585.92H834.899V573.79Z" stroke="#8BD2BD" stroke-width="2" stroke-miterlimit="10"/>
<path d="M854.089 573.79H843.711V585.92H854.089V573.79Z" stroke="#8BD2BD" stroke-width="2" stroke-miterlimit="10"/>
<path d="M873.288 573.79H862.91V585.92H873.288V573.79Z" stroke="#8BD2BD" stroke-width="2" stroke-miterlimit="10"/>
<path d="M892.478 573.79H882.1V585.92H892.478V573.79Z" stroke="#8BD2BD" stroke-width="2" stroke-miterlimit="10"/>
<path d="M911.668 573.79H901.29V585.92H911.668V573.79Z" stroke="#8BD2BD" stroke-width="2" stroke-miterlimit="10"/>
<path d="M930.866 573.79H920.489V585.92H930.866V573.79Z" stroke="#8BD2BD" stroke-width="2" stroke-miterlimit="10"/>
<path d="M805.322 544H815.7" stroke="#8BD2BD" stroke-width="2" stroke-miterlimit="10" stroke-linecap="square"/>
<path d="M824.521 544H834.89" stroke="#8BD2BD" stroke-width="2" stroke-miterlimit="10" stroke-linecap="square"/>
<path d="M490.652 147H478.522V159.13H490.652V147Z" stroke="#8BD2BD" stroke-width="2" stroke-miterlimit="10"/>
<path d="M513.092 147H500.962V159.13H513.092V147Z" stroke="#8BD2BD" stroke-width="2" stroke-miterlimit="10"/>
<path d="M535.522 147H523.392V159.13H535.522V147Z" stroke="#8BD2BD" stroke-width="2" stroke-miterlimit="10"/>
<path d="M557.962 147H545.832V159.13H557.962V147Z" stroke="#8BD2BD" stroke-width="2" stroke-miterlimit="10"/>
<path d="M580.392 147H568.262V159.13H580.392V147Z" stroke="#8BD2BD" stroke-width="2" stroke-miterlimit="10"/>
<path d="M602.822 147H590.692V159.13H602.822V147Z" stroke="#8BD2BD" stroke-width="2" stroke-miterlimit="10"/>
<path d="M625.262 147H613.132V159.13H625.262V147Z" stroke="#8BD2BD" stroke-width="2" stroke-miterlimit="10"/>
<path d="M490.652 166.79H478.522V178.92H490.652V166.79Z" stroke="#8BD2BD" stroke-width="2" stroke-miterlimit="10"/>
<path d="M513.092 166.79H500.962V178.92H513.092V166.79Z" stroke="#8BD2BD" stroke-width="2" stroke-miterlimit="10"/>
<path d="M535.522 166.79H523.392V178.92H535.522V166.79Z" stroke="#8BD2BD" stroke-width="2" stroke-miterlimit="10"/>
<path d="M557.962 166.79H545.832V178.92H557.962V166.79Z" stroke="#8BD2BD" stroke-width="2" stroke-miterlimit="10"/>
<path d="M580.392 166.79H568.262V178.92H580.392V166.79Z" stroke="#8BD2BD" stroke-width="2" stroke-miterlimit="10"/>
<path d="M602.822 166.79H590.692V178.92H602.822V166.79Z" stroke="#8BD2BD" stroke-width="2" stroke-miterlimit="10"/>
<path d="M625.262 166.79H613.132V178.92H625.262V166.79Z" stroke="#8BD2BD" stroke-width="2" stroke-miterlimit="10"/>
<path d="M478.522 137H490.652" stroke="#8BD2BD" stroke-width="2" stroke-miterlimit="10" stroke-linecap="square"/>
<path d="M500.962 137H513.082" stroke="#8BD2BD" stroke-width="2" stroke-miterlimit="10" stroke-linecap="square"/>
<path d="M1236.24 529.34C1192.45 529.34 1156.96 487.85 1156.96 436.67C1156.96 385.49 1192.45 344 1236.24 344" fill="#FFE031"/>
<path d="M1147.84 436.67C1147.84 379.61 1187.42 333.35 1236.24 333.35" stroke="#1D262D" stroke-miterlimit="10"/>
<path d="M1236.24 539.99C1187.42 539.99 1147.84 493.73 1147.84 436.67" stroke="#1D262D" stroke-width="4" stroke-miterlimit="10"/>
<path d="M1147.84 436.67C1147.84 379.61 1187.42 333.35 1236.24 333.35" stroke="#1D262D" stroke-miterlimit="10"/>
<path d="M1236.24 539.99C1187.42 539.99 1147.84 493.73 1147.84 436.67" stroke="#1D262D" stroke-width="4" stroke-miterlimit="10"/>
<path d="M1139.68 436.67C1139.68 374.34 1182.91 323.81 1236.24 323.81" stroke="#1D262D" stroke-miterlimit="10"/>
<path d="M1236.24 549.53C1182.91 549.53 1139.68 499 1139.68 436.67" stroke="#1D262D" stroke-width="4" stroke-miterlimit="10"/>
<path d="M1139.68 436.67C1139.68 374.34 1182.91 323.81 1236.24 323.81" stroke="#1D262D" stroke-miterlimit="10"/>
<path d="M1236.24 549.53C1182.91 549.53 1139.68 499 1139.68 436.67" stroke="#1D262D" stroke-width="4" stroke-miterlimit="10"/>
<path d="M1131.55 436.67C1131.55 369.09 1178.42 314.31 1236.24 314.31" stroke="#1D262D" stroke-miterlimit="10"/>
<path d="M1236.24 559.03C1178.42 559.03 1131.55 504.25 1131.55 436.67" stroke="#1D262D" stroke-width="4" stroke-miterlimit="10"/>
<path d="M1122.73 436.67C1122.73 363.4 1173.55 304 1236.24 304" stroke="#1D262D" stroke-miterlimit="10"/>
<path d="M1236.24 569.34C1173.55 569.34 1122.73 509.94 1122.73 436.67" stroke="#1D262D" stroke-width="4" stroke-miterlimit="10"/>
<path d="M41.1058 661.76H-7.45557V718.52H41.1058V661.76Z" stroke="#1D262D" stroke-width="2" stroke-miterlimit="10"/>
<path d="M65.3864 633.38H16.8251V690.14H65.3864V633.38Z" fill="#FFE031"/>
<path d="M1247.22 77.8673H1134.71V108.457H1247.22V77.8673Z" stroke="#1D262D" stroke-width="2" stroke-miterlimit="10"/>
<path d="M1254.92 67.9973H1142.41V98.5873H1254.92V67.9973Z" fill="#FFE031"/>
<path d="M1204.33 177.268H1208.89V155.438H1204.33V177.268Z" fill="#1D262D"/>
<path d="M1192.75 177.268H1197.31V155.438H1192.75V177.268Z" fill="#1D262D"/>
<path d="M1181.17 177.268H1185.73V155.438H1181.17V177.268Z" fill="#1D262D"/>
<path d="M1204.33 146.182H1208.89V124.352H1204.33V146.182Z" fill="#1D262D"/>
<path d="M1192.75 146.182H1197.31V124.352H1192.75V146.182Z" fill="#1D262D"/>
<path d="M1192.75 115.097H1197.31V93.2666H1192.75V115.097Z" fill="#1D262D"/>
<path d="M1181.17 115.097H1185.73V93.2666H1181.17V115.097Z" fill="#1D262D"/>
<path d="M1204.33 84.001H1208.89V62.171H1204.33V84.001Z" fill="#1D262D"/>
<path d="M1181.17 84.001H1185.73V62.171H1181.17V84.001Z" fill="#1D262D"/>
<path d="M1204.33 52.9156H1208.89V31.0857H1204.33V52.9156Z" fill="#1D262D"/>
<path d="M1192.75 52.9156H1197.31V31.0857H1192.75V52.9156Z" fill="#1D262D"/>
<path d="M1204.33 21.83H1208.89V-4.3869e-05H1204.33V21.83Z" fill="#1D262D"/>
<path d="M1192.75 21.83H1197.31V-4.3869e-05H1192.75V21.83Z" fill="#1D262D"/>
<path d="M1181.17 21.83H1185.73V-4.3869e-05H1181.17V21.83Z" fill="#1D262D"/>
</svg>
